<svg width="99" height="115" viewBox="0 0 99 115" fill="none" xmlns="http://www.w3.org/2000/svg">
<path d="M25.124 100.094C25.7733 100.094 26.3266 100.211 26.7842 100.446C27.1942 100.654 27.5438 100.941 27.833 101.309L27.9258 100.279H29.957V110.039C29.957 110.942 29.7652 111.709 29.3818 112.34C28.9984 112.97 28.4636 113.45 27.7773 113.777C27.0908 114.111 26.2956 114.278 25.3926 114.278C25.0092 114.278 24.5823 114.223 24.1123 114.111C23.6485 114 23.1969 113.821 22.7578 113.573C22.3251 113.332 21.9634 113.014 21.6729 112.618L22.7207 111.301C23.0793 111.727 23.4754 112.039 23.9082 112.237C24.3411 112.435 24.7962 112.534 25.2725 112.534C25.7855 112.534 26.2215 112.439 26.5801 112.247C26.945 112.062 27.2269 111.786 27.4248 111.421C27.6227 111.056 27.7217 110.611 27.7217 110.085V109.368C27.4406 109.695 27.1101 109.957 26.7285 110.15C26.271 110.385 25.7299 110.503 25.1055 110.503C24.4932 110.503 23.9391 110.376 23.4443 110.122C22.9559 109.869 22.5351 109.513 22.1826 109.056C21.8363 108.598 21.5703 108.06 21.3848 107.441C21.1992 106.817 21.1064 106.139 21.1064 105.409V105.215C21.1064 104.454 21.1993 103.761 21.3848 103.137C21.5703 102.506 21.8363 101.964 22.1826 101.513C22.5289 101.055 22.9497 100.706 23.4443 100.465C23.9391 100.217 24.4993 100.094 25.124 100.094ZM93.832 100.094C94.4813 100.094 95.0346 100.211 95.4922 100.446C95.9022 100.654 96.2518 100.941 96.541 101.309L96.6338 100.279H98.665V110.039C98.665 110.942 98.4732 111.709 98.0898 112.34C97.7064 112.97 97.1716 113.45 96.4854 113.777C95.7988 114.111 95.0036 114.278 94.1006 114.278C93.7172 114.278 93.2903 114.223 92.8203 114.111C92.3565 114 91.9049 113.821 91.4658 113.573C91.0331 113.332 90.6715 113.014 90.3809 112.618L91.4287 111.301C91.7873 111.727 92.1834 112.039 92.6162 112.237C93.0492 112.435 93.5042 112.534 93.9805 112.534C94.4935 112.534 94.9295 112.439 95.2881 112.247C95.653 112.062 95.9349 111.786 96.1328 111.421C96.3307 111.056 96.4297 110.611 96.4297 110.085V109.368C96.1486 109.695 95.8181 109.957 95.4365 110.15C94.979 110.385 94.4379 110.503 93.8135 110.503C93.2012 110.503 92.6471 110.376 92.1523 110.122C91.6639 109.869 91.2431 109.513 90.8906 109.056C90.5443 108.598 90.2783 108.06 90.0928 107.441C89.9072 106.817 89.8145 106.139 89.8145 105.409V105.215C89.8145 104.454 89.9073 103.761 90.0928 103.137C90.2783 102.506 90.5443 101.964 90.8906 101.513C91.2369 101.055 91.6577 100.706 92.1523 100.465C92.6471 100.217 93.2074 100.094 93.832 100.094ZM4.88965 100.094C5.6071 100.094 6.23535 100.214 6.77344 100.455C7.31143 100.696 7.75688 101.037 8.10938 101.476C8.46805 101.909 8.73407 102.426 8.90723 103.025C9.08649 103.625 9.17578 104.287 9.17578 105.011V105.966H2.59082C2.61291 106.283 2.66783 106.584 2.75586 106.866C2.87954 107.237 3.05905 107.562 3.29395 107.84C3.52897 108.118 3.81348 108.338 4.14746 108.499C4.48145 108.654 4.8623 108.73 5.28906 108.73C5.82688 108.73 6.30615 108.623 6.72656 108.406C7.14709 108.19 7.51206 107.883 7.82129 107.487L9 108.629C8.78355 108.944 8.50155 109.247 8.15527 109.538C7.80904 109.822 7.38546 110.054 6.88477 110.233C6.39004 110.413 5.81468 110.503 5.15918 110.503C4.41699 110.503 3.74544 110.382 3.14551 110.141C2.55191 109.893 2.04452 109.55 1.62402 109.111C1.20965 108.672 0.8916 108.155 0.668945 107.562C0.446342 106.968 0.335014 106.328 0.334961 105.642V105.271C0.334961 104.485 0.449015 103.774 0.677734 103.137C0.906551 102.5 1.22565 101.955 1.63379 101.504C2.04199 101.046 2.52441 100.696 3.08105 100.455C3.63757 100.214 4.24041 100.094 4.88965 100.094ZM51.8516 100.094C52.569 100.094 53.1973 100.214 53.7354 100.455C54.2733 100.696 54.7188 101.037 55.0713 101.476C55.43 101.909 55.696 102.426 55.8691 103.025C56.0484 103.625 56.1377 104.287 56.1377 105.011V105.966H49.5527C49.5748 106.283 49.6297 106.584 49.7178 106.866C49.8414 107.237 50.021 107.562 50.2559 107.84C50.4909 108.118 50.7754 108.338 51.1094 108.499C51.4434 108.654 51.8242 108.73 52.251 108.73C52.7888 108.73 53.2681 108.623 53.6885 108.406C54.109 108.19 54.474 107.883 54.7832 107.487L55.9619 108.629C55.7455 108.944 55.4635 109.247 55.1172 109.538C54.771 109.822 54.3474 110.054 53.8467 110.233C53.3519 110.413 52.7766 110.503 52.1211 110.503C51.3789 110.503 50.7074 110.382 50.1074 110.141C49.5138 109.893 49.0064 109.55 48.5859 109.111C48.1716 108.672 47.8535 108.155 47.6309 107.562C47.4083 106.968 47.2969 106.328 47.2969 105.642V105.271C47.2969 104.485 47.4109 103.774 47.6396 103.137C47.8685 102.5 48.1876 101.955 48.5957 101.504C49.0039 101.046 49.4863 100.696 50.043 100.455C50.5995 100.214 51.2023 100.094 51.8516 100.094ZM62.0381 100.094C62.7555 100.094 63.3838 100.214 63.9219 100.455C64.4599 100.696 64.9053 101.037 65.2578 101.476C65.6165 101.909 65.8825 102.426 66.0557 103.025C66.2349 103.625 66.3242 104.287 66.3242 105.011V105.966H59.7393C59.7613 106.283 59.8163 106.584 59.9043 106.866C60.028 107.237 60.2075 107.562 60.4424 107.84C60.6774 108.118 60.9619 108.338 61.2959 108.499C61.6299 108.654 62.0107 108.73 62.4375 108.73C62.9753 108.73 63.4546 108.623 63.875 108.406C64.2955 108.19 64.6605 107.883 64.9697 107.487L66.1484 108.629C65.932 108.944 65.65 109.247 65.3037 109.538C64.9575 109.822 64.5339 110.054 64.0332 110.233C63.5385 110.413 62.9631 110.503 62.3076 110.503C61.5654 110.503 60.8939 110.382 60.2939 110.141C59.7003 109.893 59.193 109.55 58.7725 109.111C58.3581 108.672 58.04 108.155 57.8174 107.562C57.5948 106.968 57.4835 106.328 57.4834 105.642V105.271C57.4834 104.485 57.5975 103.774 57.8262 103.137C58.055 102.5 58.3741 101.955 58.7822 101.504C59.1904 101.046 59.6729 100.696 60.2295 100.455C60.786 100.214 61.3888 100.094 62.0381 100.094ZM16.0225 100.094C16.5049 100.094 16.9414 100.162 17.3311 100.298C17.7267 100.428 18.0636 100.641 18.3418 100.938C18.6263 101.234 18.8428 101.621 18.9912 102.098C19.1396 102.568 19.2139 103.146 19.2139 103.832V110.317H16.9688V103.823C16.9688 103.341 16.8981 102.96 16.7559 102.682C16.6198 102.397 16.4183 102.197 16.1523 102.079C15.8926 101.955 15.5682 101.894 15.1787 101.894C14.7952 101.894 14.4515 101.974 14.1484 102.135C13.8456 102.296 13.5891 102.515 13.3789 102.793C13.2889 102.916 13.2097 103.048 13.1377 103.188V110.317H10.9014V100.279H13.0078L13.0811 101.489C13.0966 101.469 13.112 101.449 13.1279 101.43C13.4804 101.003 13.9012 100.675 14.3896 100.446C14.8782 100.211 15.4226 100.094 16.0225 100.094ZM34.6699 110.317H32.4248V100.279H34.6699V110.317ZM42.2217 100.094C42.7041 100.094 43.1406 100.162 43.5303 100.298C43.9259 100.428 44.2628 100.641 44.541 100.938C44.8255 101.234 45.042 101.621 45.1904 102.098C45.3388 102.568 45.4131 103.146 45.4131 103.832V110.317H43.168V103.823C43.168 103.341 43.0973 102.96 42.9551 102.682C42.819 102.397 42.6175 102.197 42.3516 102.079C42.0919 101.955 41.7675 101.894 41.3779 101.894C40.9945 101.894 40.6507 101.974 40.3477 102.135C40.0448 102.296 39.7883 102.515 39.5781 102.793C39.4881 102.916 39.4089 103.048 39.3369 103.188V110.317H37.1006V100.279H39.207L39.2803 101.489C39.2959 101.469 39.3113 101.449 39.3271 101.43C39.6796 101.003 40.1004 100.675 40.5889 100.446C41.0774 100.211 41.6218 100.094 42.2217 100.094ZM72.5869 100.094C72.7229 100.094 72.868 100.106 73.0225 100.131C73.1833 100.156 73.3044 100.183 73.3848 100.214L73.3662 102.292C73.2302 102.267 73.0816 102.249 72.9209 102.236C72.7664 102.224 72.6116 102.218 72.457 102.218C72.0736 102.218 71.736 102.273 71.4453 102.385C71.1548 102.49 70.9107 102.645 70.7129 102.849C70.5463 103.021 70.4147 103.226 70.3135 103.464V110.317H68.0781V100.279H70.2119L70.2744 101.459C70.2873 101.437 70.3002 101.414 70.3135 101.393C70.567 100.984 70.8826 100.665 71.2598 100.437C71.6432 100.208 72.0859 100.094 72.5869 100.094ZM77.1787 110.317H74.9336V100.279H77.1787V110.317ZM84.7305 100.094C85.2129 100.094 85.6494 100.162 86.0391 100.298C86.4347 100.428 86.7716 100.641 87.0498 100.938C87.3343 101.234 87.5508 101.621 87.6992 102.098C87.8476 102.568 87.9219 103.146 87.9219 103.832V110.317H85.6768V103.823C85.6768 103.341 85.6061 102.96 85.4639 102.682C85.3278 102.397 85.1263 102.197 84.8604 102.079C84.6006 101.955 84.2763 101.894 83.8867 101.894C83.5033 101.894 83.1595 101.974 82.8564 102.135C82.5536 102.296 82.2971 102.515 82.0869 102.793C81.9969 102.916 81.9177 103.048 81.8457 103.188V110.317H79.6094V100.279H81.7158L81.7891 101.489C81.8046 101.469 81.82 101.449 81.8359 101.43C82.1884 101.003 82.6092 100.675 83.0977 100.446C83.5862 100.211 84.1306 100.094 84.7305 100.094ZM25.6807 101.894C25.2786 101.894 24.9287 101.98 24.6318 102.153C24.3352 102.326 24.0911 102.564 23.8994 102.867C23.7139 103.17 23.5742 103.523 23.4814 103.925C23.3887 104.327 23.3428 104.757 23.3428 105.215V105.409C23.3428 105.867 23.3861 106.294 23.4727 106.689C23.5654 107.085 23.7041 107.435 23.8896 107.738C24.0814 108.035 24.3227 108.27 24.6133 108.443C24.9102 108.61 25.2601 108.693 25.6621 108.693C26.1876 108.693 26.6173 108.582 26.9512 108.359C27.2861 108.14 27.5426 107.846 27.7217 107.477V103.097C27.6384 102.936 27.5431 102.789 27.4336 102.654C27.2419 102.413 27.0007 102.228 26.71 102.098C26.4193 101.962 26.0764 101.894 25.6807 101.894ZM94.3887 101.894C93.9867 101.894 93.6367 101.98 93.3398 102.153C93.0432 102.326 92.7991 102.564 92.6074 102.867C92.4219 103.17 92.2822 103.523 92.1895 103.925C92.0967 104.327 92.0508 104.757 92.0508 105.215V105.409C92.0508 105.867 92.0941 106.294 92.1807 106.689C92.2734 107.085 92.4121 107.435 92.5977 107.738C92.7894 108.035 93.0307 108.27 93.3213 108.443C93.6182 108.61 93.9681 108.693 94.3701 108.693C94.8956 108.693 95.3253 108.582 95.6592 108.359C95.9941 108.14 96.2507 107.846 96.4297 107.477V103.097C96.3464 102.936 96.2511 102.789 96.1416 102.654C95.9499 102.413 95.7087 102.228 95.418 102.098C95.1273 101.962 94.7844 101.894 94.3887 101.894ZM4.88086 101.875C4.50977 101.875 4.17839 101.955 3.8877 102.116C3.6034 102.271 3.36546 102.496 3.17383 102.793C2.98211 103.09 2.83366 103.449 2.72852 103.869C2.69115 104.026 2.6629 104.19 2.63965 104.361H6.96777V104.185C6.9554 103.783 6.875 103.405 6.72656 103.053C6.58433 102.7 6.36513 102.416 6.06836 102.199C5.77153 101.983 5.37554 101.875 4.88086 101.875ZM51.8428 101.875C51.4717 101.875 51.1403 101.955 50.8496 102.116C50.5653 102.271 50.3274 102.496 50.1357 102.793C49.944 103.09 49.7956 103.449 49.6904 103.869C49.6531 104.026 49.6248 104.19 49.6016 104.361H53.9297V104.185C53.9173 103.783 53.8369 103.405 53.6885 103.053C53.5462 102.7 53.327 102.416 53.0303 102.199C52.7334 101.983 52.3375 101.875 51.8428 101.875ZM62.0293 101.875C61.6582 101.875 61.3268 101.955 61.0361 102.116C60.7518 102.271 60.5139 102.496 60.3223 102.793C60.1305 103.09 59.9821 103.449 59.877 103.869C59.8396 104.026 59.8113 104.19 59.7881 104.361H64.1162V104.185C64.1038 103.783 64.0234 103.405 63.875 103.053C63.7328 102.7 63.5136 102.416 63.2168 102.199C62.92 101.983 62.524 101.875 62.0293 101.875ZM33.5566 96.457C33.9525 96.457 34.2653 96.571 34.4941 96.7998C34.7229 97.0224 34.8369 97.3044 34.8369 97.6445C34.8368 97.9783 34.7229 98.2569 34.4941 98.4795C34.2653 98.7021 33.9524 98.8135 33.5566 98.8135C33.1548 98.8134 32.8391 98.702 32.6104 98.4795C32.3878 98.2569 32.2765 97.9783 32.2764 97.6445C32.2764 97.3044 32.3878 97.0224 32.6104 96.7998C32.8391 96.571 33.1547 96.4571 33.5566 96.457ZM76.0654 96.457C76.4613 96.457 76.7741 96.571 77.0029 96.7998C77.2317 97.0224 77.3457 97.3044 77.3457 97.6445C77.3456 97.9783 77.2317 98.2569 77.0029 98.4795C76.7741 98.7021 76.4612 98.8135 76.0654 98.8135C75.6636 98.8134 75.3479 98.702 75.1191 98.4795C74.8966 98.2569 74.7853 97.9783 74.7852 97.6445C74.7852 97.3044 74.8966 97.0224 75.1191 96.7998C75.3479 96.571 75.6635 96.4571 76.0654 96.457ZM7.70898 72.251C8.89378 72.251 9.933 72.488 10.8262 72.9619C11.7192 73.4267 12.4213 74.0786 12.9316 74.917C13.451 75.7463 13.7201 76.7128 13.7383 77.8154H10.6348C10.6074 77.2688 10.4705 76.7762 10.2246 76.3389C9.9877 75.8924 9.6502 75.5368 9.21289 75.2725C8.78456 75.0082 8.26943 74.876 7.66797 74.876C7.0026 74.876 6.45117 75.0127 6.01367 75.2861C5.57619 75.5505 5.23437 75.9151 4.98828 76.3799C4.74226 76.8355 4.56443 77.3507 4.45508 77.9248C4.35487 78.4898 4.30469 79.078 4.30469 79.6885V80.167C4.30471 80.7775 4.35484 81.3703 4.45508 81.9443C4.55535 82.5183 4.72859 83.0337 4.97461 83.4893C5.22979 83.9357 5.57633 84.296 6.01367 84.5693C6.45111 84.8335 7.00736 84.9658 7.68164 84.9658C8.2193 84.9658 8.70254 84.861 9.13086 84.6514C9.56828 84.4327 9.91929 84.1317 10.1836 83.749C10.4569 83.3663 10.6074 82.924 10.6348 82.4229H13.7383C13.72 83.3797 13.4374 84.2505 12.8906 85.0342C12.3438 85.8179 11.6191 86.4424 10.7168 86.9072C9.81452 87.3629 8.81631 87.5908 7.72266 87.5908C6.59262 87.5908 5.60799 87.3993 4.76953 87.0166C3.93116 86.6248 3.23367 86.0867 2.67773 85.4033C2.12185 84.7199 1.70247 83.9311 1.41992 83.0381C1.14653 82.145 1.00981 81.1876 1.00977 80.167V79.6885C1.00977 78.6678 1.14656 77.7105 1.41992 76.8174C1.70245 75.9151 2.12182 75.122 2.67773 74.4385C3.23372 73.7549 3.93099 73.2217 4.76953 72.8389C5.60807 72.4469 6.5879 72.251 7.70898 72.251ZM32.0176 72.251C33.0748 72.251 34.0001 72.4287 34.793 72.7842C35.5858 73.1396 36.2423 73.6411 36.7617 74.2881C37.2902 74.926 37.6823 75.6874 37.9375 76.5713C38.2017 77.4553 38.334 78.4309 38.334 79.4971V80.9053H28.6289C28.6615 81.3727 28.7434 81.8151 28.873 82.2314C29.0553 82.7781 29.3198 83.257 29.666 83.667C30.0123 84.077 30.4318 84.4008 30.9238 84.6377C31.4159 84.8654 31.9767 84.9795 32.6055 84.9795C33.3983 84.9795 34.1049 84.82 34.7246 84.501C35.3443 84.182 35.8822 83.7307 36.3379 83.1475L38.0742 84.8291C37.7552 85.2939 37.3404 85.7406 36.8301 86.1689C36.3197 86.5882 35.6952 86.93 34.957 87.1943C34.2279 87.4586 33.3801 87.5908 32.4141 87.5908C31.3205 87.5908 30.3313 87.413 29.4473 87.0576C28.5724 86.6931 27.8248 86.187 27.2051 85.54C26.5945 84.893 26.125 84.1316 25.7969 83.2568C25.4688 82.382 25.3047 81.4383 25.3047 80.4268V79.8799C25.3047 78.7225 25.4734 77.6741 25.8105 76.7354C26.1478 75.7966 26.6173 74.9944 27.2188 74.3291C27.8203 73.6546 28.5312 73.1396 29.3516 72.7842C30.1719 72.4287 31.0606 72.251 32.0176 72.251ZM46.8105 72.251C47.9224 72.251 48.907 72.4379 49.7637 72.8115C50.6294 73.1852 51.3087 73.7504 51.8008 74.5068C52.3019 75.2542 52.5527 76.1933 52.5527 77.3232V83.8994C52.5528 84.5737 52.5983 85.1801 52.6895 85.7178C52.7897 86.2462 52.931 86.7068 53.1133 87.0986V87.3174H49.7363C49.5814 86.962 49.4583 86.5105 49.3672 85.9639C49.3616 85.9262 49.3567 85.8881 49.3516 85.8506C49.2201 85.9943 49.0818 86.1392 48.9297 86.2783C48.5104 86.6611 48.0045 86.9756 47.4121 87.2217C46.8288 87.4677 46.1542 87.5908 45.3887 87.5908C44.4227 87.5908 43.5611 87.3993 42.8047 87.0166C42.0484 86.6248 41.4557 86.1004 41.0273 85.4443C40.599 84.7791 40.3848 84.0268 40.3848 83.1885C40.3848 82.4048 40.5307 81.7118 40.8223 81.1104C41.123 80.4997 41.5606 79.9892 42.1348 79.5791C42.7181 79.1689 43.429 78.859 44.2676 78.6494C45.1061 78.4307 46.0632 78.3213 47.1387 78.3213H49.2441V77.2959C49.2441 76.7675 49.1483 76.3114 48.957 75.9287C48.7657 75.546 48.4738 75.2497 48.082 75.04C47.6993 74.8304 47.216 74.7256 46.6328 74.7256C46.0951 74.7256 45.6302 74.8167 45.2383 74.999C44.8464 75.1813 44.541 75.4274 44.3223 75.7373C44.1036 76.0471 43.9941 76.3982 43.9941 76.79H40.7129C40.7129 76.2068 40.8543 75.6415 41.1367 75.0947C41.4193 74.5479 41.8295 74.0602 42.3672 73.6318C42.9049 73.2035 43.5475 72.8662 44.2949 72.6201C45.0423 72.374 45.8809 72.251 46.8105 72.251ZM60.1406 72.5244H62.7793V74.9307H60.1406V83.2295C60.1407 83.685 60.2045 84.0362 60.332 84.2822C60.4687 84.5189 60.6558 84.6788 60.8926 84.7607C61.1295 84.8427 61.4077 84.8838 61.7266 84.8838C61.9543 84.8838 62.1733 84.8701 62.3828 84.8428C62.5924 84.8154 62.7611 84.7881 62.8887 84.7607L62.9023 87.2764C62.6289 87.3584 62.3098 87.4313 61.9453 87.4951C61.5899 87.5589 61.1796 87.5908 60.7148 87.5908C59.9585 87.5908 59.2883 87.4585 58.7051 87.1943C58.1219 86.921 57.666 86.4786 57.3379 85.8682C57.0098 85.2576 56.8458 84.4461 56.8457 83.4346V74.9307H54.4395V72.5244H56.8457V68.9014H60.1406V72.5244ZM92.2832 72.251C93.3404 72.251 94.2657 72.4287 95.0586 72.7842C95.8514 73.1396 96.5079 73.6411 97.0273 74.2881C97.5558 74.926 97.948 75.6874 98.2031 76.5713C98.4673 77.4553 98.5996 78.4309 98.5996 79.4971V80.9053H88.8945C88.9271 81.3727 89.009 81.8151 89.1387 82.2314C89.321 82.7781 89.5854 83.257 89.9316 83.667C90.2779 84.077 90.6974 84.4008 91.1895 84.6377C91.6815 84.8654 92.2424 84.9795 92.8711 84.9795C93.664 84.9795 94.3705 84.82 94.9902 84.501C95.61 84.182 96.1478 83.7307 96.6035 83.1475L98.3398 84.8291C98.0209 85.2939 97.606 85.7406 97.0957 86.1689C96.5853 86.5882 95.9609 86.93 95.2227 87.1943C94.4936 87.4586 93.6457 87.5908 92.6797 87.5908C91.5861 87.5908 90.5969 87.413 89.7129 87.0576C88.8381 86.6931 88.0904 86.187 87.4707 85.54C86.8601 84.893 86.3906 84.1316 86.0625 83.2568C85.7344 82.382 85.5704 81.4383 85.5703 80.4268V79.8799C85.5703 78.7225 85.739 77.6741 86.0762 76.7354C86.4134 75.7966 86.8829 74.9944 87.4844 74.3291C88.0859 73.6546 88.7969 73.1396 89.6172 72.7842C90.4375 72.4287 91.3262 72.251 92.2832 72.251ZM22.9258 72.251C23.1262 72.251 23.3406 72.2692 23.5684 72.3057C23.8052 72.3421 23.9831 72.3832 24.1016 72.4287L24.0742 75.4912C23.8738 75.4548 23.6548 75.4274 23.418 75.4092C23.1902 75.391 22.9622 75.3818 22.7344 75.3818C22.1693 75.3818 21.6725 75.4639 21.2441 75.6279C20.8158 75.7829 20.4557 76.0107 20.1641 76.3115C19.9209 76.5625 19.7248 76.8605 19.5762 77.2061V87.3174H16.2812V72.5244H19.4258L19.5186 74.2637C19.5377 74.2306 19.5565 74.1975 19.5762 74.165C19.9499 73.5635 20.4147 73.0941 20.9707 72.7568C21.5358 72.4196 22.1875 72.251 22.9258 72.251ZM68.8496 87.3174H65.541V72.5244H68.8496V87.3174ZM77.7178 83.2041L80.8945 72.5244H84.3125L79.1719 87.3174H76.2324L71.0645 72.5244H74.4961L77.7178 83.2041ZM47.3848 80.3584C46.7741 80.3584 46.2363 80.4177 45.7715 80.5361C45.3066 80.6455 44.9193 80.8096 44.6094 81.0283C44.2995 81.2471 44.067 81.5114 43.9121 81.8213C43.7573 82.1311 43.6797 82.4822 43.6797 82.874C43.6798 83.2658 43.7709 83.6261 43.9531 83.9541C44.1354 84.2729 44.3999 84.5239 44.7461 84.7061C45.1015 84.8882 45.5301 84.9795 46.0312 84.9795C46.7056 84.9795 47.2937 84.8427 47.7949 84.5693C48.3053 84.2868 48.7064 83.9449 48.998 83.5439C49.0959 83.4063 49.1771 83.2702 49.2441 83.1377V80.3584H47.3848ZM32.0039 74.876C31.457 74.876 30.9694 74.9945 30.541 75.2314C30.1218 75.4593 29.7708 75.792 29.4883 76.2295C29.2058 76.6669 28.987 77.1957 28.832 77.8154C28.777 78.046 28.7315 78.2874 28.6973 78.54H35.0801V78.2803C35.0619 77.688 34.9432 77.1317 34.7246 76.6123C34.515 76.0929 34.1912 75.6735 33.7539 75.3545C33.3165 75.0355 32.733 74.876 32.0039 74.876ZM92.2695 74.876C91.7227 74.876 91.235 74.9945 90.8066 75.2314C90.3874 75.4593 90.0365 75.792 89.7539 76.2295C89.4714 76.6669 89.2526 77.1957 89.0977 77.8154C89.0426 78.046 88.9971 78.2874 88.9629 78.54H95.3457V78.2803C95.3275 77.688 95.2088 77.1317 94.9902 76.6123C94.7807 76.0929 94.4568 75.6735 94.0195 75.3545C93.5821 75.0355 92.9986 74.876 92.2695 74.876ZM67.209 66.8916C67.7922 66.8916 68.2527 67.0603 68.5898 67.3975C68.9268 67.7255 69.0957 68.1405 69.0957 68.6416C69.0956 69.1336 68.927 69.5441 68.5898 69.8721C68.2527 70.2001 67.7921 70.3642 67.209 70.3643C66.6168 70.3643 66.1517 70.2 65.8145 69.8721C65.4864 69.5441 65.3224 69.1336 65.3223 68.6416C65.3223 68.1404 65.4864 67.7256 65.8145 67.3975C66.1517 67.0602 66.6165 66.8916 67.209 66.8916ZM36.2217 1.74316H39.2861L40.3076 2.76465H41.3281L42.3496 3.78516H43.3711L44.3926 4.80664H45.4131L47.4561 6.84961L45.4131 8.8916V9.91309L44.3926 10.9346V11.9551L43.3711 12.9766V13.998L41.3281 16.041H40.3076L39.2861 15.0195H38.2646L36.2217 12.9766H34.1797L33.1582 11.9551H24.9883L23.9668 12.9766H22.9453L21.9248 13.998H20.9033L14.7754 20.126V21.1465L13.7549 22.168V24.2109L12.7334 25.2314V32.3809L13.7549 33.4023V34.4229L14.7754 35.4443V36.4658L16.8184 38.5088V39.5293L17.8398 40.5508H18.8604L20.9033 42.5938H21.9248L22.9453 43.6143H23.9668L24.9883 44.6357H34.1797L35.2012 43.6143H37.2432L43.3711 37.4873V36.4658L45.4131 34.4229V33.4023L46.4346 32.3809V31.3594L47.4561 30.3379V29.3174L48.4775 28.2959V27.2744L49.498 26.2529V25.2314L51.541 23.1895V22.168L52.5625 21.1465V20.126L53.584 19.1045V18.083L54.6045 17.0615V16.041L56.6475 13.998V12.9766L57.6689 11.9551V10.9346L61.7539 6.84961H62.7744L64.8174 4.80664H65.8389L66.8604 3.78516H67.8809L68.9023 2.76465H70.9453L71.9658 1.74316H74.0088L75.0303 0.72168H86.2637L87.2852 1.74316H90.3486L91.3701 2.76465H92.3916L93.4131 3.78516H94.4336L96.4766 5.82812H97.498V8.8916L95.4551 10.9346V11.9551L94.4336 12.9766V13.998L93.4131 15.0195V16.041H91.3701L90.3486 15.0195H89.3281L88.3066 13.998H87.2852L86.2637 12.9766H85.2422L84.2217 11.9551H76.0518L75.0303 12.9766H74.0088L72.9873 13.998H71.9658L66.8604 19.1045V20.126L64.8174 22.168V23.1895L63.7959 24.2109V25.2314L62.7744 26.2529V27.2744L61.7539 28.2959V29.3174L59.7109 31.3594V32.3809L58.6895 33.4023V34.4229L57.6689 35.4443V36.4658L56.6475 37.4873V38.5088L54.6045 40.5508V41.5723L53.584 42.5938V43.6143L49.498 47.6992V48.7207H48.4775L45.4131 51.7852H44.3926L43.3711 52.8057H42.3496L41.3281 53.8271H40.3076L39.2861 54.8486H37.2432L36.2217 55.8701H30.0947L29.0732 56.8906L28.0518 55.8701H21.9248L20.9033 54.8486H18.8604L17.8398 53.8271H16.8184L15.7969 52.8057H14.7754L12.7334 50.7637H11.7119L7.62695 46.6787V45.6572L5.58398 43.6143V42.5938L4.56348 41.5723V40.5508L3.54199 39.5293V37.4873L2.52051 36.4658V34.4229L1.49902 33.4023V22.168L2.52051 21.1465V19.1045L3.54199 18.083V17.0615L4.56348 16.041V15.0195L5.58398 13.998V12.9766L8.64844 9.91309V8.8916H9.66895L13.7549 4.80664H14.7754L15.7969 3.78516H16.8184L17.8398 2.76465H19.8818L20.9033 1.74316H22.9453L23.9668 0.72168H35.2012L36.2217 1.74316ZM93.416 41.5723V42.5938L94.4365 43.6143V44.6357L96.4795 46.6787V47.6992L97.501 48.7207V50.7637L96.4795 51.7842H95.458L94.4365 52.8057H93.416L92.3945 53.8271H91.373L90.3516 54.8486H88.3096L87.2881 55.8701H81.1602L80.1396 56.8906H79.1182L78.0967 55.8701H72.9902L71.9688 54.8486H69.9268L68.9053 53.8271H67.8838L66.8633 52.8057H65.8418L64.8203 51.7842H63.7988V49.7422L64.8203 48.7207V47.6992L65.8418 46.6787V45.6572L67.8838 43.6143V42.5938L68.9053 41.5723H70.9482L72.9902 43.6143H74.0117L75.0332 44.6357H85.2451L86.2666 43.6143H87.2881L88.3096 42.5938H89.3311L91.373 40.5508H92.3945L93.416 41.5723Z" fill="black"/>
</svg>
