<svg width="1260" height="105" viewBox="0 0 1260 105" fill="none" xmlns="http://www.w3.org/2000/svg">
<path d="M82.4551 0C91.7174 5.862e-06 100.43 1.33418 108.594 4.00293C116.914 6.67179 124.294 10.5966 130.73 15.7773C137.324 20.801 142.74 27.0808 146.979 34.6162C151.217 42.1518 153.886 50.787 154.985 60.5205H119.191C118.563 56.2817 117.15 52.4353 114.952 48.9814C112.754 45.3707 110.007 42.2304 106.71 39.5615C103.413 36.8929 99.6457 34.8523 95.4072 33.4395C91.3255 31.8695 87.0078 31.084 82.4551 31.084C74.1345 31.084 67.0694 32.7325 61.2607 36.0293C55.4521 39.1691 50.7426 43.4868 47.1318 48.9814C43.521 54.3192 40.8519 60.442 39.125 67.3496C37.5551 74.2572 36.7705 81.4008 36.7705 88.7793C36.7705 94.2815 37.2489 99.6882 38.2012 105H0.969727C0.513797 101.932 0.189199 98.8083 0 95.6289V81.7676C0.576906 71.8674 2.39367 62.587 5.4502 53.9268C9.218 43.0943 14.6346 33.6746 21.6992 25.668C28.7638 17.6615 37.3982 11.3818 47.6025 6.8291C57.964 2.27634 69.5817 0 82.4551 0Z" fill="white"/>
<path d="M303.245 105H266.859L246.403 45.4502H245.933L224.795 105H189.372L227.564 4.00391H265.478L303.245 105Z" fill="white"/>
<path d="M400.782 0C409.574 1.18073e-05 417.973 1.02065 425.979 3.06152C434.143 4.94544 441.365 8.08475 447.645 12.4805C453.924 16.8761 458.869 22.5282 462.479 29.4355C466.247 36.1862 468.132 44.4286 468.132 54.1621H432.338C432.024 49.1386 430.925 44.9784 429.041 41.6816C427.314 38.3848 424.958 35.7941 421.976 33.9102C418.993 32.0264 415.539 30.6922 411.614 29.9072C407.847 29.1223 403.686 28.7295 399.134 28.7295C396.151 28.7295 393.168 29.0439 390.186 29.6719C387.203 30.2998 384.455 31.3988 381.943 32.9688C379.588 34.5387 377.626 36.5006 376.056 38.8555C374.486 41.2103 373.701 44.1931 373.701 47.8037C373.701 51.1005 374.329 53.7696 375.585 55.8105C376.841 57.8514 379.274 59.735 382.885 61.4619C386.652 63.1888 391.755 64.9157 398.191 66.6426C404.785 68.3695 413.342 70.5675 423.86 73.2363C427 73.8643 431.317 75.0418 436.812 76.7686C442.463 78.3385 448.037 80.9293 453.531 84.54C459.026 88.1509 463.735 93.0179 467.66 99.1406C468.889 100.937 469.932 102.89 470.791 105H412.407C410.419 104.429 408.35 103.888 406.198 103.379C400.233 101.966 394.188 100.396 388.065 98.6689C381.786 97.099 375.663 95.2154 369.697 93.0176C363.732 90.6628 358.394 87.68 353.685 84.0693C348.975 80.4585 345.128 75.9842 342.146 70.6465C339.32 65.1518 337.907 58.5578 337.907 50.8652C337.907 42.2307 339.712 34.7738 343.323 28.4941C347.091 22.0575 351.958 16.7192 357.924 12.4805C363.889 8.24196 370.64 5.10236 378.175 3.06152C385.71 1.02064 393.247 0 400.782 0Z" fill="white"/>
<path d="M620.354 35.0879H569.96V105H532.988V35.0879H482.594V4.00391H620.354V35.0879Z" fill="white"/>
<path d="M739.726 105H703.34L682.884 45.4502H682.413L661.275 105H625.853L664.045 4.00391H701.958L739.726 105Z" fill="white"/>
<path d="M854.691 0C863.326 6.28845e-06 871.647 1.33408 879.653 4.00293C887.817 6.5148 895.117 10.2829 901.554 15.3066C908.147 20.3303 913.563 26.5317 917.802 33.9102C922.041 41.2887 924.631 49.7663 925.573 59.3428H890.25C888.052 49.9236 883.814 42.8591 877.534 38.1494C871.255 33.4397 863.64 31.084 854.691 31.084C846.371 31.084 839.306 32.7325 833.497 36.0293C827.688 39.1691 822.979 43.4868 819.368 48.9814C815.757 54.3192 813.088 60.442 811.361 67.3496C809.791 74.2572 809.007 81.4008 809.007 88.7793C809.007 94.2815 809.485 99.6882 810.438 105H773.206C772.427 99.7554 772.035 94.3486 772.035 88.7793C772.035 76.22 773.919 64.6021 777.687 53.9268C781.454 43.0943 786.871 33.6746 793.936 25.668C801 17.6615 809.635 11.3818 819.839 6.8291C830.2 2.27634 841.818 0 854.691 0Z" fill="white"/>
<path d="M928.164 105H857.518V81.2432H928.164V105Z" fill="white"/>
<path d="M1057.59 105H1021.33L993.107 59.5791H992.637V105H958.02V4.00391H994.756L1057.59 105Z" fill="white"/>
<path d="M1100.02 105H1065.4V4.00391H1100.02V105Z" fill="white"/>
<path d="M1258.32 35.0879H1169.54V77.1592H1251.02V105H1132.57V4.00391H1258.32V35.0879Z" fill="white"/>
</svg>
