<svg width="13" height="12" viewBox="0 0 13 12" fill="none" xmlns="http://www.w3.org/2000/svg">
<path d="M5.74996 4.24984H6.91663V3.08317H5.74996M5.74996 8.9165H6.91663V5.4165H5.74996M6.33329 0.166504C7.09934 0.166504 7.85788 0.317388 8.56561 0.61054C9.27335 0.903692 9.91641 1.33337 10.4581 1.87505C11.552 2.96901 12.1666 4.45274 12.1666 5.99984C12.1666 7.54693 11.552 9.03066 10.4581 10.1246C9.91641 10.6663 9.27335 11.096 8.56561 11.3891C7.85788 11.6823 7.09934 11.8332 6.33329 11.8332C4.7862 11.8332 3.30247 11.2186 2.2085 10.1246C1.11454 9.03066 0.49996 7.54693 0.49996 5.99984C0.49996 5.23379 0.650843 4.47525 0.943995 3.76752C1.23715 3.05978 1.66683 2.41672 2.2085 1.87505C2.75018 1.33337 3.39324 0.903692 4.10097 0.61054C4.80871 0.317388 5.56725 0.166504 6.33329 0.166504Z" fill="black" fill-opacity="0.5"/>
</svg>
