<svg width="13" height="12" viewBox="0 0 13 12" fill="none" xmlns="http://www.w3.org/2000/svg">
<path d="M4 9.49984L6.33333 7.72067L8.66667 9.49984L7.79167 6.61234L10.125 4.94984H7.26667L6.33333 1.9165L5.4 4.94984H2.54167L4.875 6.61234L4 9.49984ZM6.33333 11.8332C5.52639 11.8332 4.76806 11.6799 4.05833 11.3735C3.34861 11.0671 2.73125 10.6515 2.20625 10.1269C1.68125 9.60192 1.26572 8.98456 0.959667 8.27484C0.653611 7.56511 0.500389 6.80678 0.5 5.99984C0.5 5.19289 0.653222 4.43456 0.959667 3.72484C1.26611 3.01512 1.68164 2.39775 2.20625 1.87275C2.73125 1.34775 3.34861 0.932226 4.05833 0.626171C4.76806 0.320115 5.52639 0.166893 6.33333 0.166504C7.14028 0.166504 7.89861 0.319726 8.60833 0.626171C9.31806 0.932615 9.93542 1.34814 10.4604 1.87275C10.9854 2.39775 11.4011 3.01512 11.7076 3.72484C12.014 4.43456 12.1671 5.19289 12.1667 5.99984C12.1667 6.80678 12.0134 7.56511 11.707 8.27484C11.4006 8.98456 10.985 9.60192 10.4604 10.1269C9.93542 10.6519 9.31806 11.0676 8.60833 11.3741C7.89861 11.6805 7.14028 11.8336 6.33333 11.8332Z" fill="black" fill-opacity="0.5"/>
</svg>
