<svg width="43" height="42" viewBox="0 0 43 42" fill="none" xmlns="http://www.w3.org/2000/svg">
<path fill-rule="evenodd" clip-rule="evenodd" d="M21.5 3.5C11.8347 3.5 4 11.3347 4 21C4 24.3075 4.91875 27.405 6.5165 30.044L4.9555 35.35C4.86587 35.6546 4.85998 35.9778 4.93843 36.2855C5.01688 36.5932 5.17678 36.8741 5.40133 37.0987C5.62587 37.3232 5.90677 37.4831 6.21448 37.5616C6.52219 37.64 6.84535 37.6341 7.15 37.5445L12.456 35.9835C15.1838 37.6337 18.3119 38.5041 21.5 38.5C31.1652 38.5 39 30.6652 39 21C39 11.3347 31.1652 3.5 21.5 3.5ZM17.5415 24.9602C21.0817 28.4987 24.461 28.966 25.6545 29.0097C27.4692 29.0762 29.2367 27.6902 29.9245 26.082C30.0106 25.8818 30.0417 25.6622 30.0146 25.446C29.9876 25.2297 29.9033 25.0246 29.7705 24.8517C28.8115 23.6267 27.5147 22.7465 26.2477 21.8715C25.9834 21.6882 25.6582 21.6145 25.3406 21.6661C25.023 21.7177 24.7378 21.8904 24.545 22.148L23.495 23.7492C23.4395 23.835 23.3535 23.8965 23.2544 23.9212C23.1553 23.9458 23.0505 23.9319 22.9612 23.8822C22.249 23.4745 21.2112 22.7815 20.4657 22.036C19.7202 21.2905 19.0692 20.3 18.7035 19.6332C18.6593 19.5483 18.6467 19.4504 18.6682 19.357C18.6897 19.2637 18.7438 19.181 18.8207 19.124L20.4377 17.9235C20.6692 17.7233 20.8186 17.4447 20.8573 17.1412C20.8961 16.8376 20.8215 16.5304 20.6477 16.2785C19.8637 15.1305 18.9502 13.671 17.6255 12.7032C17.4542 12.5802 17.2539 12.5034 17.0442 12.4804C16.8345 12.4574 16.6224 12.489 16.4285 12.572C14.8185 13.2615 13.4255 15.029 13.492 16.8472C13.5357 18.0407 14.003 21.42 17.5415 24.9602Z" fill="black"/>
</svg>
