<svg width="29" height="28" viewBox="0 0 29 28" fill="none" xmlns="http://www.w3.org/2000/svg">
<path opacity="0.2" d="M20.5711 18.9705L13.5 26L6.42889 18.9705C5.03038 17.5802 4.07798 15.8089 3.69214 13.8805C3.3063 11.9521 3.50434 9.95329 4.26122 8.13679C5.0181 6.3203 6.29982 4.76771 7.94431 3.67537C9.5888 2.58303 11.5222 2 13.5 2C15.4778 2 17.4112 2.58303 19.0557 3.67537C20.7002 4.76771 21.9819 6.3203 22.7388 8.13679C23.4957 9.95329 23.6937 11.9521 23.3079 13.8805C22.922 15.8089 21.9696 17.5802 20.5711 18.9705ZM13.5 16.3593C14.6787 16.3593 15.8092 15.8938 16.6427 15.0652C17.4762 14.2366 17.9444 13.1128 17.9444 11.941C17.9444 10.7692 17.4762 9.64543 16.6427 8.81684C15.8092 7.98826 14.6787 7.52276 13.5 7.52276C12.3213 7.52276 11.1908 7.98826 10.3573 8.81684C9.52381 9.64543 9.05556 10.7692 9.05556 11.941C9.05556 13.1128 9.52381 14.2366 10.3573 15.0652C11.1908 15.8938 12.3213 16.3593 13.5 16.3593ZM13.5 14.1502C12.9106 14.1502 12.3454 13.9174 11.9287 13.5031C11.5119 13.0888 11.2778 12.5269 11.2778 11.941C11.2778 11.3551 11.5119 10.7932 11.9287 10.3789C12.3454 9.96465 12.9106 9.7319 13.5 9.7319C14.0894 9.7319 14.6546 9.96465 15.0713 10.3789C15.4881 10.7932 15.7222 11.3551 15.7222 11.941C15.7222 12.5269 15.4881 13.0888 15.0713 13.5031C14.6546 13.9174 14.0894 14.1502 13.5 14.1502Z" fill="black"/>
</svg>
