<svg width="39" height="38" viewBox="0 0 39 38" fill="none" xmlns="http://www.w3.org/2000/svg">
<g clip-path="url(#clip0_1333_5093)">
<path d="M19.5 7.68536e-06C18.5141 7.68536e-06 17.5483 0.0733688 16.6025 0.220091L16.8717 1.97917C18.6138 1.71323 20.3862 1.71323 22.1283 1.97917L22.4007 0.220091C21.4408 0.072711 20.4711 -0.000865749 19.5 7.68536e-06ZM14.9907 0.538341C13.1027 1.00004 11.2967 1.7487 9.63585 2.75817L10.5605 4.27976C12.0654 3.36338 13.7029 2.6851 15.415 2.26892L14.9907 0.538341ZM24.0093 0.538341L23.585 2.27051C25.2971 2.68668 26.9346 3.36497 28.4395 4.28134L29.3642 2.75817C27.7033 1.7487 25.8973 1.00004 24.0093 0.538341ZM19.5 3.56251C16.8155 3.56208 14.1774 4.26168 11.8458 5.59225C9.51432 6.92283 7.57008 8.83839 6.20499 11.1499C4.83991 13.4614 4.10118 16.0889 4.06171 18.773C4.02224 21.4572 4.6834 24.1053 5.97994 26.4559C6.0971 26.6681 6.13827 26.9183 6.08127 27.1542L4.47735 34.0227L11.3459 32.4188C11.5831 32.3648 11.832 32.4009 12.0441 32.5201C14.3263 33.7819 16.8922 34.4417 19.5 34.4375C28.0263 34.4375 34.9375 27.5263 34.9375 19C34.9375 10.4738 28.0263 3.56251 19.5 3.56251ZM8.27102 3.67017C6.70228 4.81922 5.31923 6.20227 4.17019 7.77101L5.60944 8.82234C6.65233 7.40418 7.90419 6.15231 9.32235 5.10942L8.27102 3.67017ZM30.729 3.67017L29.6777 5.10942C31.0958 6.15231 32.3477 7.40418 33.3906 8.82234L34.8298 7.77101C33.6808 6.20227 32.2978 4.81922 30.729 3.67017ZM3.25819 9.13584C2.24871 10.7967 1.50005 12.6027 1.03835 14.4907L2.77052 14.915C3.1862 13.203 3.86395 11.5655 4.77977 10.0605L3.25819 9.13584ZM35.7418 9.13584L34.2203 10.0605C35.1366 11.5654 35.8149 13.2029 36.2311 14.915L37.9617 14.4907C37.5001 12.6021 36.7515 10.7972 35.7418 9.13584ZM0.71852 16.0993C0.57167 17.0592 0.498622 18.029 0.50002 19C0.50002 19.9859 0.573381 20.9517 0.720103 21.8975L2.47919 21.6283C2.34692 20.7585 2.28076 19.8799 2.28127 19C2.28127 18.1049 2.34724 17.2288 2.47919 16.3717L0.71852 16.0993ZM38.2799 16.1025L36.5208 16.3717C36.6528 17.2288 36.7188 18.1049 36.7188 19C36.7188 20.3427 36.6523 20.7733 36.5208 21.6283L38.2799 21.9007C38.5741 19.9791 38.5741 18.024 38.2799 16.1025ZM2.77052 23.085L1.03835 23.5093C1.38537 24.9308 1.89541 26.3074 2.55835 27.6118L2.13877 29.4168L3.8741 29.8205L4.4441 27.3838L4.14644 26.8058C3.54445 25.6232 3.08217 24.3745 2.76894 23.085M36.2295 23.085C35.8135 24.7977 35.1352 26.4357 34.2187 27.9411L35.7418 28.8658C36.7515 27.2044 37.5001 25.3979 37.9617 23.5093L36.2295 23.085ZM33.3906 29.1777C32.3477 30.5958 31.0958 31.8477 29.6777 32.8906L30.729 34.3298C32.2978 33.1808 33.6808 31.7977 34.8298 30.229L33.3906 29.1777ZM1.78885 30.9193L1.06527 34.01C0.955459 34.4818 0.96771 34.9738 1.10087 35.4395C1.23402 35.9053 1.48368 36.3294 1.82628 36.6718C2.16888 37.0142 2.59311 37.2637 3.05891 37.3967C3.52471 37.5296 4.0167 37.5416 4.48844 37.4316L7.58227 36.7112L7.17693 34.9774L4.08469 35.6978C3.90793 35.7388 3.72364 35.7341 3.5492 35.6842C3.37476 35.6342 3.21591 35.5407 3.08761 35.4124C2.9593 35.2841 2.86578 35.1253 2.81584 34.9508C2.76591 34.7764 2.76121 34.5921 2.80219 34.4153L3.52102 31.3215L1.78885 30.9193ZM28.4395 33.7203C26.9346 34.6366 25.2971 35.3149 23.585 35.7311L24.0093 37.4617C25.8973 37 27.7033 36.2513 29.3642 35.2418L28.4395 33.7203ZM11.1179 34.0575L8.67952 34.6275L9.08485 36.3613L10.8883 35.9401C12.1771 36.5972 13.553 37.1118 14.9907 37.4617L15.415 35.7295C14.1256 35.4168 12.8769 34.955 11.6942 34.3536L11.1179 34.0575ZM16.8717 36.0208L16.5994 37.7799C18.5209 38.0741 20.476 38.0741 22.3975 37.7799L22.1283 36.0208C21.2712 36.1528 20.3951 36.2188 19.5 36.2188C18.6202 36.2193 17.7415 36.1531 16.8717 36.0208Z" fill="black"/>
</g>
<defs>
<clipPath id="clip0_1333_5093">
<rect width="38" height="38" fill="white" transform="translate(0.5)"/>
</clipPath>
</defs>
</svg>
