<svg width="21" height="20" viewBox="0 0 21 20" fill="none" xmlns="http://www.w3.org/2000/svg">
<path d="M6.71042 1.66602C7.05708 1.66602 7.33792 1.93602 7.33792 2.26935V3.48602C7.89458 3.47602 8.51875 3.47602 9.22125 3.47602H12.5671C13.2688 3.47602 13.8929 3.47602 14.4496 3.48685V2.27018C14.4496 1.93685 14.7304 1.66602 15.0771 1.66602C15.4237 1.66602 15.7046 1.93602 15.7046 2.26935V3.54102C16.9087 3.63352 17.6996 3.86102 18.2796 4.42018C18.8612 4.97852 19.0979 5.73852 19.1937 6.89685L19.2604 7.49935H2.59375V6.89602C2.69042 5.73768 2.92708 4.97768 3.50792 4.41935C4.08875 3.86102 4.87875 3.63268 6.08292 3.54018V2.26935C6.08292 1.93602 6.36375 1.66602 6.71042 1.66602Z" fill="#EFFCFB"/>
<path opacity="0.5" d="M19.2607 11.6667V10C19.2607 9.30083 19.2573 8.05417 19.2465 7.5H2.60233C2.5915 8.05417 2.594 9.30083 2.594 10V11.6667C2.594 14.8092 2.594 16.3808 3.57067 17.3567C4.54733 18.3325 6.11733 18.3333 9.26067 18.3333H12.594C15.7357 18.3333 17.3073 18.3333 18.284 17.3567C19.2607 16.38 19.2607 14.81 19.2607 11.6667Z" fill="#EFFCFB" fill-opacity="0.5"/>
<path d="M15.9258 14.1667C15.9258 14.3877 15.838 14.5996 15.6817 14.7559C15.5254 14.9122 15.3135 15 15.0924 15C14.8714 15 14.6595 14.9122 14.5032 14.7559C14.3469 14.5996 14.2591 14.3877 14.2591 14.1667C14.2591 13.9457 14.3469 13.7337 14.5032 13.5774C14.6595 13.4211 14.8714 13.3333 15.0924 13.3333C15.3135 13.3333 15.5254 13.4211 15.6817 13.5774C15.838 13.7337 15.9258 13.9457 15.9258 14.1667ZM15.9258 10.8333C15.9258 11.0543 15.838 11.2663 15.6817 11.4226C15.5254 11.5789 15.3135 11.6667 15.0924 11.6667C14.8714 11.6667 14.6595 11.5789 14.5032 11.4226C14.3469 11.2663 14.2591 11.0543 14.2591 10.8333C14.2591 10.6123 14.3469 10.4004 14.5032 10.2441C14.6595 10.0878 14.8714 10 15.0924 10C15.3135 10 15.5254 10.0878 15.6817 10.2441C15.838 10.4004 15.9258 10.6123 15.9258 10.8333ZM11.7591 14.1667C11.7591 14.3877 11.6713 14.5996 11.515 14.7559C11.3588 14.9122 11.1468 15 10.9258 15C10.7048 15 10.4928 14.9122 10.3365 14.7559C10.1802 14.5996 10.0924 14.3877 10.0924 14.1667C10.0924 13.9457 10.1802 13.7337 10.3365 13.5774C10.4928 13.4211 10.7048 13.3333 10.9258 13.3333C11.1468 13.3333 11.3588 13.4211 11.515 13.5774C11.6713 13.7337 11.7591 13.9457 11.7591 14.1667ZM11.7591 10.8333C11.7591 11.0543 11.6713 11.2663 11.515 11.4226C11.3588 11.5789 11.1468 11.6667 10.9258 11.6667C10.7048 11.6667 10.4928 11.5789 10.3365 11.4226C10.1802 11.2663 10.0924 11.0543 10.0924 10.8333C10.0924 10.6123 10.1802 10.4004 10.3365 10.2441C10.4928 10.0878 10.7048 10 10.9258 10C11.1468 10 11.3588 10.0878 11.515 10.2441C11.6713 10.4004 11.7591 10.6123 11.7591 10.8333ZM7.59245 14.1667C7.59245 14.3877 7.50465 14.5996 7.34837 14.7559C7.19209 14.9122 6.98013 15 6.75911 15C6.5381 15 6.32614 14.9122 6.16986 14.7559C6.01358 14.5996 5.92578 14.3877 5.92578 14.1667C5.92578 13.9457 6.01358 13.7337 6.16986 13.5774C6.32614 13.4211 6.5381 13.3333 6.75911 13.3333C6.98013 13.3333 7.19209 13.4211 7.34837 13.5774C7.50465 13.7337 7.59245 13.9457 7.59245 14.1667ZM7.59245 10.8333C7.59245 11.0543 7.50465 11.2663 7.34837 11.4226C7.19209 11.5789 6.98013 11.6667 6.75911 11.6667C6.5381 11.6667 6.32614 11.5789 6.16986 11.4226C6.01358 11.2663 5.92578 11.0543 5.92578 10.8333C5.92578 10.6123 6.01358 10.4004 6.16986 10.2441C6.32614 10.0878 6.5381 10 6.75911 10C6.98013 10 7.19209 10.0878 7.34837 10.2441C7.50465 10.4004 7.59245 10.6123 7.59245 10.8333Z" fill="#EFFCFB"/>
</svg>
